<svg id="圖層_1" data-name="圖層 1" xmlns="http://www.w3.org/2000/svg" viewBox="0 0 300 300"><defs><style>.cls-1{fill:#fff;}.cls-2,.cls-3{fill:none;}.cls-2{stroke:#fff;stroke-miterlimit:10;stroke-width:4px;stroke-dasharray:5.02 5.02;}</style></defs><title>rotateNegative90</title><rect class="cls-1" x="125.76" y="125.76" width="48.48" height="240.86" rx="3.47" transform="translate(-96.19 396.19) rotate(-90)"/><rect class="cls-2" x="221.95" y="29.57" width="48.48" height="240.86" rx="3.47"/><path class="cls-1" d="M184.89,113.09a72.71,72.71,0,0,0-72.71,72.71H102l15.82,27.41,15.82-27.41h-11a62.27,62.27,0,0,1,62.28-62.27v10.41l27.4-15.82-27.4-15.83Z"/><path class="cls-1" d="M40.41,102.17,58,100c.47,2.46,1.25,4.19,2.35,5.21a5.74,5.74,0,0,0,4,1.52c2.84,0,5-1.44,6.64-4.3Q72.75,99.23,73.62,89a21.69,21.69,0,0,1-6.51,4.77,18.58,18.58,0,0,1-7.73,1.52A19.27,19.27,0,0,1,45,89.19a21.19,21.19,0,0,1-5.88-15.36,22.83,22.83,0,0,1,3-11.55,19.61,19.61,0,0,1,8.25-7.87q5.25-2.67,13.2-2.67,9.54,0,15.32,3.27a23,23,0,0,1,9.22,10.42q3.45,7.14,3.45,18.86,0,17.24-7.25,25.24t-20.09,8q-7.6,0-12-1.76a18.55,18.55,0,0,1-7.3-5.14A23.61,23.61,0,0,1,40.41,102.17ZM73,73.79q0-5.17-2.61-8.1A8.17,8.17,0,0,0,64,62.76a7.42,7.42,0,0,0-5.84,2.65q-2.32,2.64-2.32,7.94t2.4,8.16a7.6,7.6,0,0,0,6,2.82,8,8,0,0,0,6.2-2.73C72.14,79.78,73,77.17,73,73.79Z"/><path class="cls-1" d="M93.93,84.38q0-18.15,6.53-25.4t19.9-7.24a29.69,29.69,0,0,1,10.55,1.58,19.65,19.65,0,0,1,6.73,4.12,22.43,22.43,0,0,1,4.1,5.34,28,28,0,0,1,2.41,6.54,60.74,60.74,0,0,1,1.78,14.84q0,17.31-5.86,25.35t-20.18,8q-8,0-13-2.56a21,21,0,0,1-8.12-7.51,28.34,28.34,0,0,1-3.58-9.62A65.85,65.85,0,0,1,93.93,84.38Zm17.54,0q0,12.15,2.14,16.6c1.44,3,3.51,4.45,6.23,4.45a6.53,6.53,0,0,0,4.67-1.89,11.76,11.76,0,0,0,2.91-6,62.54,62.54,0,0,0,.93-12.71q0-12.68-2.15-17t-6.44-4.36q-4.4,0-6.34,4.45T111.47,84.42Z"/><rect class="cls-3" width="300" height="300"/></svg>