<svg id="圖層_1" data-name="圖層 1" xmlns="http://www.w3.org/2000/svg" viewBox="0 0 265.22 265.22"><defs><style>.cls-1{fill:#fff;}.cls-1,.cls-2{stroke:#231815;stroke-miterlimit:10;stroke-width:4px;}.cls-2{fill:none;stroke-dasharray:5.01 5.01;}.cls-3{fill:#231815;}</style></defs><title>rotate+90</title><rect class="cls-1" x="123.71" y="123.71" width="52.58" height="261.22" rx="3.47" transform="translate(-121.71 386.93) rotate(-90)"/><rect class="cls-2" x="210.64" y="2" width="52.58" height="261.22" rx="3.47"/><path class="cls-3" d="M187.84,110A78.86,78.86,0,0,0,109,188.83H97.91l17.16,29.72,17.16-29.72H120.29a67.54,67.54,0,0,1,67.55-67.54v11.29l29.72-17.16L187.84,98.26Z" transform="translate(-17.39 -17.39)"/><path class="cls-3" d="M31.15,98.13l19.07-2.4q.75,4,2.54,5.65A6.21,6.21,0,0,0,57.14,103c3.07,0,5.47-1.56,7.2-4.66,1.25-2.29,2.2-7.14,2.82-14.55A23.7,23.7,0,0,1,60.1,89a20,20,0,0,1-8.38,1.65,20.94,20.94,0,0,1-15.65-6.59q-6.37-6.6-6.38-16.67a24.73,24.73,0,0,1,3.25-12.52,21.23,21.23,0,0,1,9-8.54q5.69-2.89,14.31-2.9,10.35,0,16.61,3.56a24.87,24.87,0,0,1,10,11.29Q86.56,66,86.56,78.74q0,18.67-7.86,27.37t-21.8,8.68q-8.24,0-13-1.9A20,20,0,0,1,36,107.31,25.39,25.39,0,0,1,31.15,98.13ZM66.46,67.34c0-3.73-.94-6.66-2.83-8.77a8.85,8.85,0,0,0-6.87-3.18,8.08,8.08,0,0,0-6.33,2.87c-1.68,1.91-2.52,4.79-2.52,8.61s.87,6.81,2.61,8.85A8.23,8.23,0,0,0,57,78.78a8.7,8.7,0,0,0,6.73-3C65.56,73.84,66.46,71,66.46,67.34Z" transform="translate(-17.39 -17.39)"/><path class="cls-3" d="M89.19,78.83q0-19.68,7.09-27.54t21.58-7.86a32.2,32.2,0,0,1,11.44,1.72,21.27,21.27,0,0,1,7.29,4.47A23.75,23.75,0,0,1,141,55.41a30,30,0,0,1,2.61,7.09,65.9,65.9,0,0,1,1.93,16.09q0,18.8-6.35,27.5t-21.89,8.7c-5.8,0-10.5-.92-14.07-2.77a22.85,22.85,0,0,1-8.81-8.15,30.77,30.77,0,0,1-3.88-10.42A71,71,0,0,1,89.19,78.83Zm19,0q0,13.17,2.33,18t6.75,4.83a7.08,7.08,0,0,0,5.06-2,12.74,12.74,0,0,0,3.16-6.47,68.17,68.17,0,0,0,1-13.79q0-13.75-2.33-18.48t-7-4.73q-4.76,0-6.87,4.82T108.21,78.88Z" transform="translate(-17.39 -17.39)"/></svg>